<?xml version="1.0" standalone="no"?>
<!DOCTYPE svg PUBLIC "-//W3C//DTD SVG 20010904//EN"
 "http://www.w3.org/TR/2001/REC-SVG-20010904/DTD/svg10.dtd">
<svg version="1.0" xmlns="http://www.w3.org/2000/svg"
 width="548.000000pt" height="560.000000pt" viewBox="0 0 548.000000 560.000000"
 preserveAspectRatio="xMidYMid meet">

<g transform="translate(0.000000,560.000000) scale(0.100000,-0.100000)"
fill="#000000" stroke="none">
<path d="M3119 5216 c-4 -4 -37 -7 -74 -7 -53 -1 -75 -5 -97 -22 l-28 -21 0
-173 c0 -144 2 -171 14 -167 17 6 31 -12 16 -21 -7 -4 -7 -12 0 -25 8 -16 6
-22 -10 -32 -21 -13 -29 -78 -10 -78 6 0 10 -7 10 -15 0 -8 5 -15 10 -15 11 0
14 -33 3 -44 -4 -3 -13 4 -20 16 l-12 23 -1 -27 c0 -16 5 -28 10 -28 6 0 8
-11 4 -25 -3 -14 -1 -32 6 -40 8 -10 10 -36 5 -88 -5 -51 -4 -77 4 -81 6 -4
11 -21 11 -37 0 -25 -3 -29 -18 -25 -15 5 -18 -1 -20 -37 -1 -23 3 -57 8 -74
5 -20 5 -35 -1 -39 -5 -3 -9 -104 -8 -235 l0 -230 132 3 132 3 7 235 c4 129 9
306 11 393 2 86 6 159 8 162 3 2 40 -2 84 -10 44 -7 83 -11 87 -9 10 6 6 204
-4 210 -4 3 -4 14 2 24 15 27 12 56 -6 75 -13 13 -14 18 -3 31 13 15 20 245
11 348 -4 44 -8 49 -39 62 -36 15 -214 31 -224 20z m151 -105 c0 -5 -13 -14
-30 -21 -16 -7 -30 -16 -30 -21 0 -4 -15 -11 -34 -14 -25 -5 -48 0 -85 17 -28
12 -51 26 -51 30 0 11 64 10 94 -2 17 -6 38 -5 68 4 53 17 68 19 68 7z m-292
-33 c-7 -19 -38 -22 -38 -4 0 10 9 16 21 16 12 0 19 -5 17 -12z m-28 -149 c0
-11 -4 -17 -10 -14 -5 3 -10 13 -10 21 0 8 5 14 10 14 6 0 10 -9 10 -21z m60
-108 c0 -12 -20 -25 -27 -18 -7 7 6 27 18 27 5 0 9 -4 9 -9z m347 -127 c-3 -3
-12 -4 -19 -1 -8 3 -5 6 6 6 11 1 17 -2 13 -5z m-390 -26 c-3 -8 -6 -5 -6 6
-1 11 2 17 5 13 3 -3 4 -12 1 -19z m213 -68 c0 -12 -60 -44 -68 -36 -3 3 -3 7
-1 9 8 5 64 35 67 36 1 1 2 -3 2 -9z m-160 -204 c0 -3 -4 -8 -10 -11 -5 -3
-10 -1 -10 4 0 6 5 11 10 11 6 0 10 -2 10 -4z m63 -107 c-4 -13 -9 -17 -16
-10 -12 12 -1 45 12 37 5 -3 7 -15 4 -27z m-111 -511 c-6 -6 -15 -8 -19 -4 -4
4 -1 11 7 16 19 12 27 3 12 -12z"/>
<path d="M3538 5124 c-41 -29 -50 -64 -48 -176 1 -35 -3 -164 -10 -286 -7
-124 -8 -227 -4 -232 5 -4 74 -19 154 -33 80 -14 172 -31 205 -36 54 -10 109
-14 158 -12 34 2 16 26 -35 46 -28 11 -53 25 -55 31 -2 5 11 17 29 25 33 14
33 15 36 89 4 94 -4 137 -29 158 -26 22 -24 35 3 26 21 -6 21 -5 9 10 -11 13
-11 20 -3 28 19 19 15 24 -29 37 -46 14 -44 21 9 36 l37 11 3 118 c2 109 1
120 -18 138 -42 40 -83 48 -232 48 -138 0 -145 -1 -180 -26z m342 -34 c0 -5
-5 -10 -11 -10 -5 0 -7 5 -4 10 3 6 8 10 11 10 2 0 4 -4 4 -10z m-50 -54 c0
-2 -26 -19 -57 -36 l-57 -32 -55 28 -56 29 90 6 c50 3 100 6 113 7 12 1 22 0
22 -2z m-75 -236 c3 -5 1 -10 -4 -10 -6 0 -11 5 -11 10 0 6 2 10 4 10 3 0 8
-4 11 -10z m63 -178 c6 -18 -15 -14 -22 4 -4 10 -1 14 6 12 6 -2 14 -10 16
-16z m27 -132 c8 -13 -5 -13 -25 0 -13 8 -13 10 2 10 9 0 20 -4 23 -10z"/>
<path d="M2396 5131 c-4 -5 -4 -16 -1 -23 4 -9 -4 -19 -18 -25 -21 -10 -25
-21 -31 -80 -7 -70 1 -153 14 -153 12 0 5 -69 -8 -82 -13 -13 -17 -118 -4
-118 4 0 13 5 20 12 9 9 12 6 12 -14 0 -34 -15 -44 -30 -21 -10 15 -10 14 -5
-7 4 -14 9 -39 10 -57 2 -17 6 -36 9 -42 4 -5 1 -13 -5 -16 -6 -5 -8 -20 -5
-40 4 -19 2 -36 -4 -40 -5 -3 -10 -17 -10 -31 0 -17 5 -24 20 -24 11 0 23 7
26 15 9 22 24 8 24 -22 0 -19 -4 -24 -16 -19 -11 4 -18 -1 -21 -14 -3 -11 -11
-20 -18 -20 -13 0 -30 -78 -20 -88 3 -4 14 -1 23 5 10 6 31 13 47 17 25 5 32
2 42 -19 6 -14 7 -27 2 -31 -5 -3 -9 0 -9 5 0 6 -7 11 -15 11 -9 0 -15 -9 -15
-25 0 -30 -20 -33 -38 -5 -7 12 -17 18 -23 14 -7 -4 -7 -10 -1 -16 7 -7 6 -16
-5 -26 -16 -16 -14 -93 3 -136 5 -13 4 -17 -3 -13 -14 9 -21 -81 -12 -138 5
-30 7 -33 8 -12 0 15 5 27 10 27 13 0 20 -25 14 -50 -5 -19 -3 -21 16 -15 12
3 21 2 21 -4 0 -16 -40 -24 -55 -11 -13 11 -15 6 -17 -31 -4 -103 7 -139 42
-139 10 0 20 -7 24 -15 6 -17 61 -21 71 -5 5 8 11 8 20 0 15 -12 202 -9 223 4
7 4 16 4 22 1 5 -3 32 4 59 16 l50 21 -4 106 c-2 59 -5 264 -5 457 -1 192 -6
357 -11 367 -6 10 -5 19 1 23 5 3 8 49 6 108 -2 56 -4 166 -5 245 l-1 143 -46
19 c-39 17 -69 20 -209 20 -90 0 -166 -4 -169 -9z m297 -91 c-4 -5 -33 -22
-64 -39 l-55 -30 -52 24 c-29 13 -52 28 -52 32 0 4 43 8 95 8 60 0 98 4 106
12 7 7 16 10 21 6 6 -3 6 -9 1 -13z m-273 -199 c0 -12 -20 -25 -27 -18 -7 7 6
27 18 27 5 0 9 -4 9 -9z m-35 -141 c3 -5 1 -10 -4 -10 -6 0 -11 5 -11 10 0 6
2 10 4 10 3 0 8 -4 11 -10z m241 -237 c-10 -10 -19 5 -10 18 6 11 8 11 12 0 2
-7 1 -15 -2 -18z m-221 -723 c3 -5 -1 -10 -10 -10 -9 0 -13 5 -10 10 3 6 8 10
10 10 2 0 7 -4 10 -10z m365 -70 c0 -5 -5 -10 -11 -10 -5 0 -7 5 -4 10 3 6 8
10 11 10 2 0 4 -4 4 -10z"/>
<path d="M1828 5000 c-30 -16 -37 -25 -36 -50 1 -32 23 -46 58 -35 24 8 26 -1
5 -22 -13 -13 -18 -13 -32 -1 -15 11 -16 10 -10 -10 4 -16 -1 -30 -14 -43 -25
-25 -28 -152 -4 -175 17 -17 20 -81 6 -103 -6 -9 -6 -22 0 -32 6 -12 4 -22 -6
-33 -8 -8 -15 -26 -15 -39 0 -21 4 -24 23 -19 12 3 26 11 30 19 12 19 27 6 27
-23 0 -21 -4 -24 -20 -19 -16 5 -20 2 -20 -14 0 -16 -6 -21 -25 -21 -23 0 -25
-4 -25 -40 0 -22 6 -56 14 -75 13 -29 13 -35 0 -46 -7 -6 -14 -25 -13 -43 0
-17 -3 -108 -7 -202 l-7 -171 39 -24 c37 -23 46 -24 209 -24 154 1 174 3 219
23 l48 22 -7 303 c-3 166 -7 341 -8 389 -1 52 -7 92 -14 99 -10 10 -9 15 2 23
11 9 13 42 8 179 l-6 169 -41 26 c-39 24 -49 26 -191 29 -135 3 -154 1 -187
-17z m282 -104 c-8 -8 -37 -25 -63 -39 l-48 -25 -59 26 c-33 15 -59 31 -60 36
0 4 33 6 73 2 39 -3 88 -2 107 3 56 14 67 14 50 -3z m-282 -189 c2 -10 -3 -17
-12 -17 -18 0 -29 16 -21 31 9 14 29 6 33 -14z m62 -406 c15 -30 13 -46 -5
-31 -8 6 -19 9 -25 5 -14 -9 -13 -42 2 -47 7 -3 9 -11 3 -24 -8 -18 -8 -18
-12 -1 -5 22 -38 57 -53 57 -28 0 8 47 40 53 14 2 28 5 32 6 4 0 12 -8 18 -18z
m208 -315 c3 -12 -1 -17 -10 -14 -7 3 -15 13 -16 22 -3 12 1 17 10 14 7 -3 15
-13 16 -22z m-248 -188 c0 -18 -2 -20 -9 -8 -6 8 -7 18 -5 22 9 14 14 9 14
-14z"/>
<path d="M1614 4669 c-38 -58 -44 -73 -33 -85 10 -13 10 -17 -1 -24 -7 -5 -11
-17 -7 -30 4 -17 3 -19 -9 -9 -8 6 -14 19 -15 28 0 12 -2 13 -6 2 -3 -7 -14
-22 -24 -32 -16 -16 -19 -35 -20 -116 -1 -54 -2 -143 -2 -198 -1 -55 0 -144 2
-197 4 -87 6 -98 23 -98 10 0 18 -5 18 -10 0 -6 -8 -10 -17 -8 -16 3 -18 -8
-21 -84 -3 -83 -2 -88 18 -88 24 0 26 -15 4 -28 -12 -7 -15 -19 -12 -41 2 -17
1 -31 -4 -31 -4 0 -8 -31 -8 -70 0 -45 4 -70 11 -70 6 0 9 -6 6 -14 -3 -8 -1
-17 6 -19 8 -3 7 -10 -5 -24 -25 -28 -26 -208 -2 -217 16 -6 16 -8 0 -24 -22
-25 -21 -99 3 -148 11 -21 99 -122 195 -224 96 -101 174 -186 172 -188 -5 -4
-130 80 -134 91 -2 4 -13 12 -24 18 -21 11 -21 11 -15 -120 5 -112 9 -135 26
-157 26 -34 26 -49 0 -75 -17 -17 -20 -28 -15 -57 14 -81 18 -92 28 -86 8 5 9
-1 4 -17 -15 -50 -19 -178 -6 -194 8 -10 10 -19 4 -25 -9 -9 1 -290 11 -338 3
-12 14 -30 25 -39 19 -17 19 -18 1 -38 -17 -18 -18 -29 -9 -145 5 -69 13 -129
18 -134 5 -5 5 -16 0 -26 -6 -11 -3 -65 7 -148 14 -112 18 -130 31 -120 11 10
16 8 24 -5 6 -12 16 -16 29 -12 10 4 45 3 77 -1 59 -8 60 -7 -26 -29 -19 -4
-38 -15 -44 -25 -7 -11 -19 -15 -34 -12 -28 5 -29 1 -10 -36 46 -89 226 -196
399 -236 24 -6 27 -4 27 20 0 33 24 27 28 -8 4 -30 22 -36 158 -45 64 -4 93
-2 98 6 5 8 12 7 23 -4 12 -13 29 -15 87 -9 39 4 74 9 79 11 4 2 4 16 0 31 -6
24 -5 26 10 13 10 -7 17 -22 17 -32 0 -20 8 -23 34 -13 13 5 16 22 16 79 0 95
-4 105 -46 105 -46 0 -45 26 1 34 19 4 35 12 35 19 0 7 -5 66 -10 132 -14 189
-30 403 -35 485 -12 214 -17 274 -26 373 -13 135 -2 174 18 62 15 -89 25 -105
51 -89 13 9 26 7 56 -8 35 -18 37 -21 23 -36 -15 -14 -20 -14 -58 1 -24 9 -44
15 -46 13 -2 -1 0 -17 3 -34 7 -35 34 -53 34 -22 0 11 5 20 10 20 16 0 26 -33
11 -38 -9 -3 -9 -7 0 -18 19 -23 39 -16 46 16 3 17 12 30 19 30 8 0 14 7 14
16 0 8 5 12 10 9 15 -9 12 -42 -5 -49 -8 -3 -15 -10 -15 -15 0 -6 7 -7 17 -4
11 4 14 3 9 -5 -4 -7 -13 -12 -20 -12 -7 0 -25 -9 -39 -20 l-25 -20 -22 27
-21 28 6 -70 c4 -38 17 -99 28 -135 18 -52 27 -66 45 -68 23 -4 31 -22 9 -22
-7 0 -18 -9 -24 -19 -14 -22 1 -77 27 -98 13 -11 13 -14 1 -22 -11 -7 -8 -41
24 -202 20 -107 40 -203 45 -214 5 -11 13 -54 20 -95 6 -41 15 -79 20 -84 22
-22 348 113 368 151 14 27 24 153 13 153 -5 0 -12 -6 -14 -12 -4 -10 -6 -10
-6 0 -1 8 7 16 17 19 16 4 21 26 35 156 19 165 47 565 47 659 0 57 -1 59 -30
65 -38 7 -43 43 -6 43 29 0 43 17 27 33 -8 8 -7 15 2 26 16 19 55 797 41 811
-5 5 -83 -20 -174 -56 -91 -35 -169 -62 -175 -60 -5 1 8 14 30 28 22 14 132
83 245 153 113 71 241 152 285 180 44 28 111 71 149 95 61 39 66 44 47 51 -27
11 -27 29 0 29 18 0 17 3 -10 26 -17 14 -29 30 -25 35 7 12 44 11 44 -1 0 -6
5 -9 12 -8 7 2 15 -10 18 -27 5 -25 10 -30 30 -27 34 3 70 23 70 38 0 7 10 14
23 16 40 6 62 69 62 183 0 295 -50 902 -76 929 -5 6 -16 2 -28 -11 -11 -12
-26 -23 -33 -26 -10 -4 -9 -9 5 -20 24 -20 21 -27 -8 -27 -14 0 -25 -5 -25
-11 0 -6 -6 -4 -14 4 -9 8 -26 12 -40 10 -15 -3 -32 -1 -39 5 -16 13 -129 24
-144 14 -7 -4 -28 -55 -47 -112 -19 -57 -39 -106 -46 -108 -14 -5 -128 17
-150 29 -21 11 52 23 98 16 20 -4 43 -3 51 2 15 10 34 161 22 174 -9 9 -205
27 -302 27 -77 0 -71 9 -89 -134 -7 -56 -7 -93 -1 -99 6 -6 2 -24 -10 -51 -29
-63 -25 -82 22 -112 33 -21 138 -74 296 -149 11 -5 39 -20 61 -32 l40 -22 73
24 c82 28 79 28 79 18 0 -5 -22 -24 -49 -43 -41 -29 -63 -59 -127 -170 -86
-149 -145 -242 -151 -237 -3 4 15 100 42 217 24 106 22 115 -31 146 -34 20
-48 24 -57 15 -17 -17 -25 -13 -20 12 3 18 -9 30 -73 70 -41 27 -82 51 -90 54
-18 7 -30 -26 -38 -110 -4 -37 -11 -78 -16 -92 l-10 -25 -169 0 c-166 0 -172
-1 -253 -31 -68 -26 -102 -32 -190 -37 -97 -4 -108 -6 -108 -23 0 -11 -4 -19
-10 -19 -5 0 -10 3 -10 8 0 13 -53 32 -88 32 -51 0 -130 63 -138 111 -9 55
-14 58 -64 49 -25 -5 -126 -11 -225 -15 l-180 -6 -43 38 -43 38 -5 105 c-3 58
-7 110 -9 117 -7 23 -16 356 -15 561 1 111 -1 202 -5 202 -3 0 -26 -32 -51
-71z m11 -48 c3 -5 1 -12 -5 -16 -5 -3 -10 1 -10 9 0 18 6 21 15 7z m-15 -87
c0 -8 -4 -12 -10 -9 -5 3 -10 10 -10 16 0 5 5 9 10 9 6 0 10 -7 10 -16z m-22
-141 c2 -8 -5 -13 -17 -13 -21 0 -35 13 -24 24 10 10 36 3 41 -11z m9 -46
c-12 -27 -31 -35 -42 -17 -3 6 2 13 12 17 10 3 22 13 26 20 15 24 18 8 4 -20z
m2164 -180 c-1 -12 -15 -9 -19 4 -3 6 1 10 8 8 6 -3 11 -8 11 -12z m213 -28
c-31 -12 -40 -9 -20 6 10 8 24 11 29 8 6 -4 2 -10 -9 -14z m-2384 -39 c0 -5
-7 -10 -15 -10 -8 0 -15 5 -15 10 0 6 7 10 15 10 8 0 15 -4 15 -10z m2390 -66
c0 -8 -5 -12 -10 -9 -6 4 -8 11 -5 16 9 14 15 11 15 -7z m-2350 -3 c0 -6 -4
-13 -10 -16 -5 -3 -10 1 -10 9 0 9 5 16 10 16 6 0 10 -4 10 -9z m-17 -67 c-3
-13 -34 -17 -44 -7 -5 5 -7 17 -3 27 6 15 9 15 28 3 11 -8 20 -18 19 -23z
m2437 7 c0 -6 -4 -13 -10 -16 -5 -3 -10 1 -10 9 0 9 5 16 10 16 6 0 10 -4 10
-9z m-105 -31 c4 -6 -7 -10 -27 -10 -25 0 -29 3 -18 10 19 13 37 13 45 0z
m-15 -66 c0 -28 -15 -25 -23 6 -3 13 0 20 9 20 8 0 14 -10 14 -26z m-90 -44
c0 -5 -5 -10 -11 -10 -5 0 -7 5 -4 10 3 6 8 10 11 10 2 0 4 -4 4 -10z m-88
-45 c0 -5 -5 -11 -11 -13 -6 -2 -11 4 -11 13 0 9 5 15 11 13 6 -2 11 -8 11
-13z m-2212 -5 c0 -5 -7 -10 -15 -10 -8 0 -15 5 -15 10 0 6 7 10 15 10 8 0 15
-4 15 -10z m2336 -35 c-3 -9 -11 -13 -16 -10 -8 5 -7 11 1 21 14 18 24 11 15
-11z m-596 5 c0 -5 -2 -10 -4 -10 -3 0 -8 5 -11 10 -3 6 -1 10 4 10 6 0 11 -4
11 -10z m590 -82 c0 -18 -2 -20 -9 -8 -6 8 -7 18 -5 22 9 14 14 9 14 -14z
m-1698 -90 c-7 -7 -12 -8 -12 -2 0 14 12 26 19 19 2 -3 -1 -11 -7 -17z m65
-34 c2 -6 -8 -14 -22 -16 -24 -5 -34 9 -18 26 10 10 36 3 40 -10z m647 3 c20
3 20 3 -2 -8 -13 -8 -20 -18 -17 -28 2 -9 1 -22 -4 -29 -11 -17 -44 -4 -36 16
3 8 0 21 -7 29 -15 18 8 36 30 24 8 -5 24 -7 36 -4z m81 -37 c21 0 18 -24 -5
-45 -19 -17 -20 -17 -29 8 -5 13 -7 35 -4 47 5 19 7 20 15 6 5 -9 16 -16 23
-16z m-835 0 c0 -5 -4 -10 -10 -10 -5 0 -10 5 -10 10 0 6 5 10 10 10 6 0 10
-4 10 -10z m-510 -4 c0 -17 -22 -56 -31 -56 -6 0 -9 7 -6 15 4 8 2 17 -3 20
-18 11 -10 25 15 25 14 0 25 -2 25 -4z m2400 -6 c0 -5 -4 -10 -10 -10 -5 0
-10 5 -10 10 0 6 5 10 10 10 6 0 10 -4 10 -10z m-2050 -65 c0 -8 -4 -15 -9
-15 -13 0 -22 16 -14 24 11 11 23 6 23 -9z m134 -20 c-4 -8 -8 -15 -10 -15 -2
0 -4 7 -4 15 0 8 4 15 10 15 5 0 7 -7 4 -15z m-444 -5 c0 -5 -4 -10 -10 -10
-5 0 -10 5 -10 10 0 6 5 10 10 10 6 0 10 -4 10 -10z m274 -8 c3 -5 -8 -19 -24
-31 -33 -23 -41 -10 -13 21 18 20 29 23 37 10z m-154 -72 c0 -5 -4 -10 -10
-10 -5 0 -10 5 -10 10 0 6 5 10 10 10 6 0 10 -4 10 -10z m219 -12 c5 -13 6
-27 4 -31 -6 -10 -32 23 -33 41 0 20 20 13 29 -10z m426 13 c3 -5 1 -12 -5
-16 -5 -3 -10 1 -10 9 0 18 6 21 15 7z m1535 -31 c0 -5 -7 -10 -16 -10 -8 0
-12 5 -9 10 3 6 10 10 16 10 5 0 9 -4 9 -10z m-2176 -16 c11 -4 7 -13 -20 -36
-42 -37 -55 -30 -23 11 28 35 24 32 43 25z m-74 -14 c0 -5 -4 -10 -10 -10 -5
0 -10 5 -10 10 0 6 5 10 10 10 6 0 10 -4 10 -10z m2300 -15 c0 -9 -6 -12 -15
-9 -8 4 -15 10 -15 15 0 5 7 9 15 9 8 0 15 -7 15 -15z m-1810 -40 c0 -8 -4
-15 -10 -15 -5 0 -10 7 -10 15 0 8 5 15 10 15 6 0 10 -7 10 -15z m-410 -20 c0
-8 -9 -15 -20 -15 -22 0 -27 15 -7 23 21 9 27 7 27 -8z m200 -55 c0 -10 3 -25
6 -33 4 -11 0 -14 -13 -11 -14 4 -19 14 -19 39 0 23 4 31 13 28 7 -3 13 -13
13 -23z m1565 -109 c-6 -5 -129 -66 -273 -135 l-264 -126 -70 20 c-69 19 -86
26 -77 34 3 3 111 37 559 178 52 16 100 31 105 33 20 7 29 5 20 -4z m-1805
-401 c0 -5 -7 -10 -16 -10 -8 0 -12 5 -9 10 3 6 10 10 16 10 5 0 9 -4 9 -10z
m660 -26 c0 -17 -22 -14 -28 4 -2 7 3 12 12 12 9 0 16 -7 16 -16z m455 -4 c3
-5 1 -10 -4 -10 -6 0 -11 5 -11 10 0 6 2 10 4 10 3 0 8 -4 11 -10z m-765 -70
c0 -5 -2 -10 -4 -10 -3 0 -8 5 -11 10 -3 6 -1 10 4 10 6 0 11 -4 11 -10z
m-324 -47 c-10 -10 -19 5 -10 18 6 11 8 11 12 0 2 -7 1 -15 -2 -18z m361 21
c-3 -3 -12 -4 -19 -1 -8 3 -5 6 6 6 11 1 17 -2 13 -5z m1263 -40 c0 -8 -4 -12
-10 -9 -5 3 -10 10 -10 16 0 5 5 9 10 9 6 0 10 -7 10 -16z m-1430 -25 c0 -5
-4 -9 -10 -9 -5 0 -10 7 -10 16 0 8 5 12 10 9 6 -3 10 -10 10 -16z m510 -69
c0 -5 -7 -7 -15 -4 -8 4 -15 8 -15 10 0 2 7 4 15 4 8 0 15 -4 15 -10z m-695
-20 c3 -5 1 -10 -4 -10 -6 0 -11 5 -11 10 0 6 2 10 4 10 3 0 8 -4 11 -10z
m1200 -43 c0 -39 -19 -38 -23 2 -3 24 0 32 10 29 7 -3 13 -17 13 -31z m-948
-59 c-3 -7 -5 -2 -5 12 0 14 2 19 5 13 2 -7 2 -19 0 -25z m1393 12 c0 -5 -4
-10 -10 -10 -5 0 -10 5 -10 10 0 6 5 10 10 10 6 0 10 -4 10 -10z m-1540 -35
c0 -8 -4 -15 -10 -15 -5 0 -10 7 -10 15 0 8 5 15 10 15 6 0 10 -7 10 -15z
m960 -120 c0 -8 -4 -15 -10 -15 -5 0 -10 7 -10 15 0 8 5 15 10 15 6 0 10 -7
10 -15z m-990 -31 c0 -9 -5 -14 -12 -12 -18 6 -21 28 -4 28 9 0 16 -7 16 -16z
m40 6 c0 -5 -4 -10 -10 -10 -5 0 -10 5 -10 10 0 6 5 10 10 10 6 0 10 -4 10
-10z m140 -24 c0 -8 -4 -18 -10 -21 -5 -3 -10 3 -10 14 0 12 5 21 10 21 6 0
10 -6 10 -14z m580 -282 c11 -154 26 -389 35 -524 8 -135 18 -291 21 -347 l7
-102 -29 -12 c-31 -12 -141 -6 -155 8 -5 5 0 116 11 253 11 135 26 337 35 450
8 113 19 252 25 310 5 58 10 128 10 155 0 51 9 99 17 92 2 -3 13 -130 23 -283z
m-295 267 c3 -5 1 -12 -5 -16 -5 -3 -10 1 -10 9 0 18 6 21 15 7z m-505 -23 c0
-16 -3 -19 -11 -11 -6 6 -8 16 -5 22 11 17 16 13 16 -11z m1317 -31 c4 -6 20
-18 35 -26 23 -12 27 -20 25 -47 -1 -19 -7 -36 -14 -38 -14 -6 -25 18 -17 38
8 22 -13 28 -43 12 -33 -17 -125 -16 -130 1 -3 8 14 13 54 15 55 3 58 4 61 31
4 29 16 35 29 14z m268 -27 c4 -6 -20 -10 -64 -10 -41 0 -71 4 -71 10 0 6 28
10 64 10 36 0 68 -4 71 -10z m-862 -46 c9 -9 -4 -35 -14 -28 -5 3 -9 12 -9 20
0 14 12 19 23 8z m427 -36 l0 -43 -15 28 c-14 27 -11 57 6 57 5 0 9 -19 9 -42z
m412 17 c0 -5 -5 -11 -11 -13 -6 -2 -11 4 -11 13 0 9 5 15 11 13 6 -2 11 -8
11 -13z m-1092 -79 c0 -7 -11 -18 -25 -24 -21 -10 -25 -9 -25 5 0 17 30 44 42
37 5 -3 8 -11 8 -18z m120 20 c0 -11 -19 -15 -25 -6 -3 5 1 10 9 10 9 0 16 -2
16 -4z m918 -38 c6 -17 9 -34 6 -37 -8 -9 -34 30 -34 51 0 28 14 21 28 -14z
m-1124 -8 c-5 -5 -16 -5 -24 1 -13 9 -12 10 3 5 11 -4 17 0 18 12 0 12 2 13 6
4 3 -8 1 -18 -3 -22z m296 16 c0 -3 -4 -8 -10 -11 -5 -3 -10 -1 -10 4 0 6 5
11 10 11 6 0 10 -2 10 -4z m200 -6 c0 -5 -4 -10 -10 -10 -5 0 -10 5 -10 10 0
6 5 10 10 10 6 0 10 -4 10 -10z m560 -20 c0 -5 -7 -10 -16 -10 -8 0 -12 5 -9
10 3 6 10 10 16 10 5 0 9 -4 9 -10z m-273 -166 c1 -5 -2 -16 -7 -24 -8 -13
-12 -13 -27 3 -16 15 -16 19 -3 27 17 11 32 8 37 -6z m-26 -137 c-16 -16 -25
-1 -10 16 8 8 16 11 18 5 2 -5 -2 -15 -8 -21z m9 -62 c0 -11 -53 -85 -61 -85
-19 0 -8 42 17 65 25 23 44 32 44 20z m214 -23 c3 -5 2 -21 -2 -36 l-8 -28
-18 21 c-17 18 -17 21 -3 21 10 0 14 5 11 15 -6 16 11 21 20 7z m-124 -62 c13
-8 13 -10 -2 -10 -9 0 -20 5 -23 10 -8 13 5 13 25 0z m20 -50 c0 -5 -2 -10 -4
-10 -3 0 -8 5 -11 10 -3 6 -1 10 4 10 6 0 11 -4 11 -10z m-1210 -204 c0 -3 -4
-8 -10 -11 -5 -3 -10 -1 -10 4 0 6 5 11 10 11 6 0 10 -2 10 -4z m218 -83 c-10
-2 -26 -2 -35 0 -10 3 -2 5 17 5 19 0 27 -2 18 -5z m1166 -29 c9 -22 -3 -32
-14 -14 -12 19 -12 30 -1 30 5 0 12 -7 15 -16z m91 -10 c13 -5 11 -9 -11 -20
-33 -17 -34 -17 -34 0 0 8 6 17 13 19 6 3 13 6 14 6 1 1 9 -2 18 -5z m-271
-80 c22 -8 20 -31 -2 -43 -16 -9 -19 -6 -19 20 0 16 1 29 3 29 1 0 9 -3 18 -6z
m22 -121 c-7 -7 -26 7 -26 19 0 6 6 6 15 -2 9 -7 13 -15 11 -17z"/>
<path d="M1279 4192 c-20 -17 -22 -22 -9 -37 12 -15 11 -16 -16 -13 -26 3 -29
0 -32 -29 -3 -32 -22 -47 -22 -18 0 8 -5 15 -12 15 -18 0 -238 -222 -238 -240
0 -9 -13 -26 -30 -38 -35 -26 -41 -57 -10 -49 18 4 20 2 14 -16 -4 -12 -11
-23 -15 -25 -5 -2 -9 -17 -9 -34 0 -20 -9 -39 -26 -54 -45 -43 -63 -22 -19 22
32 32 32 54 0 54 -36 0 -55 -35 -51 -95 4 -56 -5 -81 -34 -90 -17 -5 -18 -9
-7 -26 17 -28 -9 -44 -40 -24 -12 8 -25 15 -28 15 -11 0 -137 -269 -156 -334
-11 -39 -29 -92 -40 -119 -24 -59 -63 -231 -80 -357 -22 -155 -17 -460 9 -625
12 -77 25 -150 28 -162 8 -29 35 -38 51 -17 7 10 16 14 20 10 11 -10 -12 -41
-30 -41 -9 0 -18 -3 -21 -6 -7 -7 31 -150 43 -162 6 -6 11 -21 11 -34 0 -13 6
-26 14 -29 17 -7 86 22 86 35 0 16 37 13 43 -3 8 -21 -4 -56 -19 -56 -8 0 -14
4 -14 9 0 10 -70 3 -83 -8 -4 -4 -1 -25 7 -47 22 -63 126 -268 142 -280 8 -6
14 -18 14 -26 0 -15 76 -135 107 -170 8 -9 21 -14 29 -11 10 4 14 -3 14 -24 0
-19 9 -38 25 -53 l25 -23 0 26 c0 20 5 27 19 27 31 0 44 -26 38 -78 l-6 -47
104 -103 c72 -72 108 -100 119 -96 11 4 16 0 16 -14 0 -28 165 -153 200 -151
46 2 52 0 47 -20 -4 -17 -2 -17 24 -4 16 8 31 19 34 24 13 21 26 -6 24 -48 -3
-43 -1 -46 31 -63 28 -14 36 -15 47 -4 7 7 13 20 13 30 0 13 -3 14 -15 4 -12
-10 -16 -9 -21 3 -15 40 36 46 105 11 37 -18 40 -34 7 -34 -13 0 -26 -7 -30
-15 -3 -8 -15 -15 -26 -15 -37 0 -21 -17 41 -44 65 -28 99 -27 99 3 0 23 -26
46 -35 31 -10 -17 -25 -11 -25 10 0 16 7 20 31 20 28 0 31 2 25 25 -7 28 11
34 32 13 10 -10 15 -10 22 2 13 21 18 10 13 -28 -4 -26 -10 -32 -26 -30 -19 3
-21 -1 -18 -42 1 -25 8 -50 14 -57 29 -29 314 -109 472 -134 166 -25 515 -38
515 -19 0 5 -4 10 -10 10 -5 0 -10 5 -10 10 0 6 9 10 20 10 11 0 20 5 20 10 0
6 -6 10 -13 10 -17 0 -57 42 -57 59 0 8 7 10 23 5 46 -14 65 -35 72 -76 7 -40
8 -40 42 -35 40 7 65 33 57 61 -4 13 -2 17 7 14 8 -3 13 -12 11 -21 -2 -11 11
-16 55 -21 72 -8 206 22 211 48 2 9 -2 16 -9 16 -10 0 -10 3 -2 11 8 8 17 6
34 -10 23 -21 23 -21 31 -1 8 23 28 27 28 6 0 -14 34 -12 55 4 6 4 25 11 43
15 17 3 32 11 32 16 0 5 8 9 17 9 25 0 103 31 103 41 0 5 8 9 18 9 9 1 28 7
41 14 21 11 25 22 26 67 2 40 6 53 16 51 8 -2 16 -8 19 -13 9 -14 40 29 41 59
1 17 3 20 6 9 3 -11 14 -17 32 -17 31 0 52 -17 44 -36 -11 -29 42 -5 74 34 21
25 21 27 5 54 -15 26 -15 29 3 46 11 9 33 19 50 20 16 1 33 9 38 17 11 20 54
19 65 -1 12 -22 29 -10 47 33 12 28 19 34 35 30 27 -7 71 29 51 42 -17 11 -5
51 15 51 8 0 14 -4 14 -10 0 -22 24 -7 81 51 63 66 69 75 42 65 -17 -7 -33 9
-33 33 0 8 6 11 15 7 18 -7 20 15 3 32 -15 15 -3 16 21 0 11 -7 16 -19 13 -30
-8 -33 27 -20 52 20 13 20 31 44 40 51 26 22 71 104 68 123 -2 10 2 18 7 18 6
0 11 7 11 15 0 15 -17 20 -54 16 -10 0 -25 4 -33 11 -12 10 -18 9 -29 -6 -7
-11 -20 -16 -29 -13 -22 9 -19 37 6 37 16 0 19 4 14 20 -8 24 2 26 25 5 14
-12 21 -13 43 -2 21 10 28 21 32 57 3 25 10 52 16 60 5 8 13 25 19 37 15 35
42 26 53 -16 4 -18 1 -24 -14 -28 -18 -5 -20 -11 -14 -42 6 -32 19 -50 35 -51
3 0 13 13 22 28 16 27 16 30 -3 60 -16 28 -17 33 -4 37 8 3 23 8 33 12 9 3 21
5 26 4 5 -1 6 4 3 12 -3 7 4 19 14 25 10 7 19 23 19 36 0 14 5 28 10 31 6 4 8
10 5 15 -3 4 2 13 10 20 8 7 15 21 15 31 0 10 10 37 21 60 23 43 28 82 15 112
-7 14 -3 20 13 24 13 3 20 11 17 19 -3 7 -1 16 4 19 17 11 11 24 -15 31 -30 7
-30 12 -5 44 l20 25 0 -23 c0 -38 25 -20 28 21 l3 36 -33 -10 c-18 -6 -40 -10
-48 -10 -70 5 -128 -3 -165 -23 -16 -9 -37 -16 -46 -16 -8 0 -19 -4 -25 -9 -5
-5 -19 -11 -32 -13 -19 -2 -28 -17 -48 -76 -21 -59 -23 -76 -13 -88 10 -12 9
-16 -8 -20 -11 -3 -26 -17 -32 -30 -15 -33 -14 -35 7 -32 13 2 18 -5 20 -31 2
-19 11 -45 20 -59 16 -24 15 -24 -6 -18 -17 6 -22 3 -22 -9 0 -30 -25 -9 -28
23 -3 32 -32 47 -32 17 0 -8 -5 -15 -11 -15 -6 0 -9 -9 -6 -20 3 -13 0 -20 -8
-20 -8 0 -26 -25 -40 -55 -15 -30 -31 -55 -36 -55 -5 0 -9 -9 -9 -20 0 -11 -4
-20 -9 -20 -4 0 -27 -27 -50 -60 -23 -33 -48 -66 -56 -74 -8 -8 -15 -16 -15
-19 0 -2 -22 -28 -50 -58 -27 -29 -51 -62 -52 -73 -2 -11 -16 -27 -33 -36 -16
-8 -34 -21 -38 -28 -4 -6 -13 -12 -20 -12 -7 0 -39 -26 -72 -57 -33 -31 -72
-64 -87 -72 -14 -9 -75 -46 -135 -82 -59 -36 -137 -80 -173 -97 -36 -18 -72
-36 -80 -41 -31 -18 -66 -31 -115 -41 -27 -6 -75 -19 -105 -29 -30 -10 -121
-29 -202 -42 -128 -20 -148 -26 -153 -44 -5 -18 -7 -18 -18 -4 -10 13 -43 17
-167 22 -85 4 -198 14 -250 22 -52 9 -116 18 -142 20 -26 2 -57 10 -70 18 -13
8 -51 22 -86 32 -50 15 -65 16 -71 6 -6 -9 -12 -6 -23 11 -9 13 -38 31 -64 41
-48 18 -68 28 -184 92 -87 47 -118 67 -186 118 -72 52 -76 54 -94 32 -10 -13
-9 -15 9 -15 25 0 28 -15 5 -24 -26 -10 -34 -7 -46 19 -8 18 -8 28 1 39 7 8
10 20 6 26 -8 12 -52 13 -59 1 -9 -14 -219 -8 -223 6 -4 11 48 23 97 21 53 -1
60 2 60 26 0 19 4 23 20 19 11 -3 20 0 20 6 0 6 -4 11 -10 11 -5 0 -10 6 -10
14 0 7 -17 29 -37 48 -21 18 -58 57 -82 86 -33 41 -46 50 -56 42 -10 -9 -16
-6 -24 9 -6 11 -8 26 -5 34 3 8 -15 45 -39 83 -24 38 -65 106 -91 151 -26 44
-53 87 -61 93 -8 7 -15 24 -15 39 0 31 -16 51 -42 51 -10 0 -18 4 -18 9 0 13
-63 20 -78 8 -9 -7 -16 -7 -24 1 -8 8 -7 13 5 18 9 3 17 13 17 21 0 12 3 13
14 4 27 -23 56 4 56 50 0 33 -3 40 -15 35 -18 -6 -20 5 -4 21 8 8 5 34 -9 94
-41 169 -69 416 -59 525 3 34 4 64 1 67 -3 3 -14 -3 -25 -14 -10 -10 -25 -19
-33 -19 -23 0 -30 21 -12 38 15 15 16 15 16 -3 1 -17 3 -17 15 5 7 14 18 26
24 26 6 1 13 2 16 3 3 0 1 10 -5 21 -9 16 -7 28 4 52 25 50 20 91 -15 126 -32
32 -23 58 10 28 22 -20 37 -20 45 0 11 28 6 42 -14 49 -25 8 -26 25 -1 25 10
0 24 7 31 15 11 13 8 20 -18 44 -31 27 -34 53 -4 28 12 -9 16 -9 19 1 3 6 11
12 19 12 9 0 14 11 14 29 0 15 9 40 20 54 12 14 20 40 20 61 0 20 4 36 9 36 5
0 16 12 26 26 12 19 14 29 6 37 -15 15 -14 27 2 27 7 0 22 12 34 28 34 46 94
163 88 172 -3 5 3 11 12 14 10 3 24 15 31 26 11 18 10 22 -10 30 -23 9 -23 9
-1 9 29 1 56 29 50 52 -4 14 0 19 14 19 26 0 44 37 28 57 -11 12 -10 17 4 24
21 12 22 48 2 55 -21 8 -19 22 3 20 12 -1 16 5 14 22 -2 20 1 22 20 16 13 -3
30 -13 39 -20 21 -18 29 -18 29 2 0 13 3 14 13 5 11 -8 18 -6 32 9 17 19 17
20 -1 20 -44 0 -87 61 -52 72 9 3 9 6 0 12 -7 4 -12 2 -12 -3 0 -14 -43 -14
-75 1 -32 14 -32 19 6 47 23 18 29 28 25 46 -7 29 28 65 46 47 19 -19 48 -14
48 7 0 11 5 23 10 26 23 14 9 27 -24 22 -35 -6 -58 7 -50 27 3 7 17 11 34 8
25 -4 30 -1 30 16 0 30 11 53 22 46 6 -4 8 2 6 12 -5 26 -30 28 -59 6z m-119
-207 c0 -10 -10 -15 -32 -15 l-33 1 25 14 c32 18 40 18 40 0z m-90 -50 c0 -8
-44 -23 -53 -18 -14 8 4 23 29 23 13 0 24 -2 24 -5z m20 -39 c0 -3 -4 -8 -10
-11 -5 -3 -10 -1 -10 4 0 6 5 11 10 11 6 0 10 -2 10 -4z m50 -10 c0 -3 -4 -8
-10 -11 -5 -3 -10 -1 -10 4 0 6 5 11 10 11 6 0 10 -2 10 -4z m-102 -24 c2 -7
-6 -12 -17 -12 -21 0 -27 11 -14 24 9 9 26 2 31 -12z m202 -33 c0 -16 -4 -19
-20 -14 -12 4 -20 2 -20 -5 0 -6 -5 -8 -11 -5 -7 5 -4 14 7 26 23 25 44 24 44
-2z m-92 -51 c-3 -7 -11 -13 -18 -13 -7 0 -15 6 -17 13 -3 7 4 12 17 12 13 0
20 -5 18 -12z m-32 -46 c-9 -9 -37 8 -31 18 5 8 11 7 21 -1 8 -6 12 -14 10
-17z m-80 -51 c-8 -13 -36 -15 -36 -3 0 4 5 13 12 20 14 14 34 0 24 -17z m-49
-17 c-3 -3 -12 -4 -19 -1 -8 3 -5 6 6 6 11 1 17 -2 13 -5z m164 -27 c-13 -13
-26 -3 -16 12 3 6 11 8 17 5 6 -4 6 -10 -1 -17z m-289 -52 c0 -5 -5 -11 -11
-13 -6 -2 -11 4 -11 13 0 9 5 15 11 13 6 -2 11 -8 11 -13z m88 -49 c-12 -13
-30 3 -30 26 0 21 0 21 19 2 10 -10 15 -23 11 -28z m110 10 c0 -3 -11 -16 -23
-30 l-24 -25 -21 23 c-11 14 -18 27 -15 30 7 7 83 8 83 2z m-199 -29 c-1 -12
-15 -9 -19 4 -3 6 1 10 8 8 6 -3 11 -8 11 -12z m-71 -50 c0 -8 11 -19 25 -25
30 -14 33 -32 4 -25 -20 6 -20 5 -5 -32 9 -20 13 -41 10 -47 -10 -15 -34 12
-34 39 0 13 -6 26 -14 29 -21 8 -27 32 -13 54 14 23 27 26 27 7z m200 -33 c0
-8 -5 -12 -10 -9 -6 4 -8 11 -5 16 9 14 15 11 15 -7z m-245 -43 c3 -5 1 -12
-5 -16 -5 -3 -10 1 -10 9 0 18 6 21 15 7z m171 -48 c-10 -10 -19 5 -10 18 6
11 8 11 12 0 2 -7 1 -15 -2 -18z m-32 -100 c5 -12 0 -14 -24 -11 -18 3 -35 -1
-41 -9 -6 -7 -17 -13 -24 -13 -9 0 -8 12 3 49 l16 49 32 -24 c18 -14 35 -32
38 -41z m57 57 c5 0 9 -5 9 -11 0 -15 -43 -7 -48 10 -3 10 0 12 12 8 10 -4 22
-7 27 -7z m-286 -20 c-3 -5 -17 -10 -31 -10 -14 0 -22 4 -19 10 3 6 17 10 31
10 14 0 22 -4 19 -10z m96 -63 c-13 -13 -26 -3 -16 12 3 6 11 8 17 5 6 -4 6
-10 -1 -17z m9 -38 c0 -5 -4 -9 -10 -9 -5 0 -10 7 -10 16 0 8 5 12 10 9 6 -3
10 -10 10 -16z m-30 -58 c0 -9 -24 -21 -42 -21 -6 0 -6 6 2 15 14 16 40 20 40
6z m-100 -87 c0 -8 -4 -14 -9 -14 -11 0 -22 26 -14 34 9 9 23 -3 23 -20z m107
11 c3 -9 3 -18 1 -21 -7 -7 -58 17 -58 28 0 15 50 8 57 -7z m3 -114 c0 -5 -7
-14 -15 -21 -13 -10 -15 -9 -15 9 0 12 6 21 15 21 8 0 15 -4 15 -9z m-210 -20
c0 -12 -20 -25 -27 -18 -7 7 6 27 18 27 5 0 9 -4 9 -9z m90 -35 c0 -31 -14
-40 -30 -21 -15 18 -6 45 15 45 9 0 15 -9 15 -24z m57 -12 c-3 -3 -12 -4 -19
-1 -8 3 -5 6 6 6 11 1 17 -2 13 -5z m-127 -34 c0 -5 -4 -10 -10 -10 -5 0 -10
5 -10 10 0 6 5 10 10 10 6 0 10 -4 10 -10z m190 -135 c0 -8 -4 -15 -10 -15 -5
0 -10 7 -10 15 0 8 5 15 10 15 6 0 10 -7 10 -15z m-70 -45 c0 -5 -5 -10 -11
-10 -5 0 -7 5 -4 10 3 6 8 10 11 10 2 0 4 -4 4 -10z m46 -6 c-3 -9 -9 -26 -12
-39 -3 -13 -13 -26 -21 -29 -11 -5 -13 -2 -8 11 4 10 10 30 13 46 2 15 11 27
19 27 10 0 13 -6 9 -16z m-230 -21 c-10 -10 -19 5 -10 18 6 11 8 11 12 0 2 -7
1 -15 -2 -18z m174 -109 c0 -8 -4 -12 -10 -9 -5 3 -10 13 -10 21 0 8 5 12 10
9 6 -3 10 -13 10 -21z m57 -246 c-3 -8 -6 -5 -6 6 -1 11 2 17 5 13 3 -3 4 -12
1 -19z m-17 -74 c0 -10 -33 -33 -48 -34 -10 0 -10 5 -2 20 10 18 50 29 50 14z
m50 -114 c0 -5 -4 -10 -10 -10 -5 0 -10 5 -10 10 0 6 5 10 10 10 6 0 10 -4 10
-10z m30 -122 c0 -16 -3 -19 -11 -11 -6 6 -8 16 -5 22 11 17 16 13 16 -11z
m13 -103 c-22 -17 -30 -11 -13 10 7 8 17 12 22 9 5 -3 1 -12 -9 -19z m-253
-21 c0 -9 -7 -14 -17 -12 -25 5 -28 28 -4 28 12 0 21 -6 21 -16z m28 -42 c2
-7 -3 -12 -12 -12 -9 0 -16 7 -16 16 0 17 22 14 28 -4z m202 -7 c0 -8 -4 -15
-10 -15 -5 0 -10 7 -10 15 0 8 5 15 10 15 6 0 10 -7 10 -15z m3740 -18 c0 -14
-10 -26 -25 -34 -29 -13 -29 -13 -10 33 15 37 35 38 35 1z m220 -17 c0 -5 -4
-10 -10 -10 -5 0 -10 5 -10 10 0 6 5 10 10 10 6 0 10 -4 10 -10z m-4028 -15
c0 -5 -5 -11 -11 -13 -6 -2 -11 4 -11 13 0 9 5 15 11 13 6 -2 11 -8 11 -13z
m3976 -37 c6 -17 9 -34 6 -37 -8 -9 -34 30 -34 51 0 28 14 21 28 -14z m-4118
7 c0 -8 -4 -15 -10 -15 -5 0 -10 7 -10 15 0 8 5 15 10 15 6 0 10 -7 10 -15z
m4048 -56 c-1 -42 -32 -35 -36 8 -3 27 0 31 17 26 14 -4 19 -13 19 -34z m-113
-50 c4 -6 5 -12 2 -15 -7 -7 -37 7 -37 17 0 13 27 11 35 -2z m-3755 -9 c0 -5
-4 -10 -10 -10 -5 0 -10 5 -10 10 0 6 5 10 10 10 6 0 10 -4 10 -10z m3920 -82
c0 -13 -32 -6 -37 9 -3 7 3 9 16 6 12 -3 21 -10 21 -15z m-120 -9 c0 -11 -4
-17 -10 -14 -5 3 -10 13 -10 21 0 8 5 14 10 14 6 0 10 -9 10 -21z m-179 -42
c-1 -12 -15 -9 -19 4 -3 6 1 10 8 8 6 -3 11 -8 11 -12z m99 -2 c-7 -8 -19 -15
-26 -15 -8 0 -14 7 -14 15 0 10 10 15 26 15 22 0 25 -2 14 -15z m40 -33 c0 -5
-6 -17 -14 -28 -19 -25 -31 -12 -14 15 13 21 28 28 28 13z m-3685 -80 c-8 -9
-25 20 -18 31 3 5 10 2 15 -7 6 -10 7 -20 3 -24z m3592 6 c-2 -20 -9 -33 -18
-33 -16 0 -14 32 3 53 16 19 19 15 15 -20z m58 -48 c-22 -24 -35 -26 -35 -5 0
8 9 15 20 15 11 0 20 5 20 12 0 6 3 8 7 5 3 -4 -2 -16 -12 -27z m-3395 -20 c0
-5 -11 -10 -25 -10 -14 0 -25 5 -25 10 0 6 11 10 25 10 14 0 25 -4 25 -10z
m3245 -70 c3 -5 -1 -10 -9 -10 -9 0 -16 5 -16 10 0 6 4 10 9 10 6 0 13 -4 16
-10z m-141 -6 c9 -3 16 -12 16 -20 0 -7 9 -18 21 -24 19 -11 20 -13 4 -30 -21
-23 -65 -32 -65 -13 0 7 7 16 15 19 13 5 13 8 0 27 -14 20 -20 47 -11 47 2 0
11 -3 20 -6z m-3256 -22 c2 -7 -3 -12 -12 -12 -9 0 -16 7 -16 16 0 17 22 14
28 -4z m200 -17 c-6 -31 8 -43 15 -14 8 29 27 14 27 -21 0 -15 7 -30 15 -34
20 -7 19 -46 -1 -75 -13 -18 -18 -20 -25 -10 -5 8 -6 26 -3 41 4 21 -1 31 -25
49 -17 13 -31 31 -31 40 0 10 -4 21 -10 24 -19 12 -10 25 16 25 23 0 26 -3 22
-25z m3156 -13 c1 -38 -14 -42 -30 -8 -8 18 -8 28 -1 35 18 18 30 7 31 -27z
m-3326 -13 c-2 -6 -8 -10 -13 -10 -5 0 -11 4 -13 10 -2 6 4 11 13 11 9 0 15
-5 13 -11z m3429 -89 c-22 -25 -26 -27 -32 -12 -4 11 3 24 22 39 36 29 42 12
10 -27z m-3147 -2 c0 -16 -3 -19 -11 -11 -6 6 -8 16 -5 22 11 17 16 13 16 -11z
m35 -7 c-7 -23 -25 -29 -25 -8 0 14 21 39 28 33 2 -3 1 -14 -3 -25z m3165 19
c0 -5 -4 -10 -10 -10 -5 0 -10 5 -10 10 0 6 5 10 10 10 6 0 10 -4 10 -10z
m-3386 -18 c9 -11 34 -24 56 -31 38 -11 54 -30 28 -32 -33 -3 -84 3 -92 11 -5
5 -15 6 -22 3 -15 -6 -17 8 -8 45 8 27 16 28 38 4z m66 8 c0 -5 -7 -10 -15
-10 -8 0 -15 5 -15 10 0 6 7 10 15 10 8 0 15 -4 15 -10z m2980 0 c0 -5 -9 -10
-20 -10 -11 0 -20 5 -20 10 0 6 9 10 20 10 11 0 20 -4 20 -10z m-64 -42 c4 -6
2 -14 -4 -16 -7 -2 -12 -10 -12 -18 0 -8 -7 -14 -15 -14 -15 0 -21 40 -8 53
10 11 31 8 39 -5z m-2816 -8 c0 -5 -10 -10 -22 -10 -19 0 -20 2 -8 10 19 13
30 13 30 0z m3020 -30 c0 -5 -4 -10 -9 -10 -6 0 -13 5 -16 10 -3 6 1 10 9 10
9 0 16 -4 16 -10z m-3170 -25 c0 -8 -4 -15 -10 -15 -5 0 -7 7 -4 15 4 8 8 15
10 15 2 0 4 -7 4 -15z m2688 -186 c17 -27 5 -40 -14 -15 -8 11 -14 23 -14 28
0 15 15 8 28 -13z m181 -10 c13 -11 22 -21 20 -24 -3 -2 -18 7 -34 20 -17 13
-25 24 -20 24 6 0 21 -9 34 -20z m161 1 c0 -5 -4 -10 -10 -10 -5 0 -10 5 -10
10 0 6 5 10 10 10 6 0 10 -4 10 -10z m-2430 -10 c0 -5 -7 -10 -15 -10 -8 0
-15 5 -15 10 0 6 7 10 15 10 8 0 15 -4 15 -10z m38 -93 c-3 -45 -28 -65 -28
-23 0 18 -4 24 -15 20 -9 -4 -15 0 -15 9 0 8 -6 18 -12 20 -23 10 10 24 43 19
28 -4 30 -7 27 -45z m1943 30 c-13 -13 -26 -3 -16 12 3 6 11 8 17 5 6 -4 6
-10 -1 -17z m169 14 c0 -14 -30 -41 -45 -41 -9 0 -6 8 8 25 23 26 37 32 37 16z
m-2030 -11 c0 -5 -4 -10 -10 -10 -5 0 -10 5 -10 10 0 6 5 10 10 10 6 0 10 -4
10 -10z m-333 -15 c8 -22 -6 -33 -17 -15 -13 20 -12 30 0 30 6 0 13 -7 17 -15z
m2141 -23 c2 -7 -7 -12 -22 -12 -27 0 -35 15 -13 23 17 7 30 3 35 -11z m82
-23 c0 -5 -11 -9 -25 -9 -27 0 -32 9 -13 28 12 12 38 -1 38 -19z m94 -28 c-6
-6 -34 20 -34 32 0 6 8 2 19 -9 10 -10 17 -21 15 -23z m-1944 -3 c0 -17 3 -19
12 -10 14 14 48 16 48 3 0 -14 -23 -28 -57 -36 -29 -6 -33 -4 -33 13 0 27 10
52 21 52 5 0 9 -10 9 -22z m-250 -3 c0 -8 7 -15 16 -15 8 0 13 -4 10 -9 -10
-16 -46 0 -46 20 0 11 5 19 10 19 6 0 10 -7 10 -15z m1930 -15 c0 -6 -7 -13
-15 -16 -10 -4 -13 -14 -9 -30 3 -13 2 -24 -3 -24 -14 0 -33 47 -27 65 7 17
54 21 54 5z m380 0 c0 -18 -13 -40 -24 -40 -6 0 -16 10 -21 23 -10 20 -8 22
17 24 15 1 28 -2 28 -7z m-2240 -20 c0 -5 -4 -10 -10 -10 -5 0 -10 5 -10 10 0
6 5 10 10 10 6 0 10 -4 10 -10z m1713 -42 c-10 -21 -12 -21 -18 -5 -10 25 2
54 17 39 8 -8 8 -18 1 -34z m-239 1 c-7 -11 -34 -12 -34 -1 0 14 11 21 26 15
8 -3 11 -9 8 -14z m-969 1 c3 -5 1 -10 -4 -10 -6 0 -11 5 -11 10 0 6 2 10 4
10 3 0 8 -4 11 -10z m-410 -10 c-3 -5 -10 -10 -16 -10 -5 0 -9 5 -9 10 0 6 7
10 16 10 8 0 12 -4 9 -10z m1165 -10 c0 -5 -4 -10 -10 -10 -5 0 -10 5 -10 10
0 6 5 10 10 10 6 0 10 -4 10 -10z m-735 -29 c7 -12 -31 -25 -45 -16 -5 3 -10
10 -10 16 0 12 47 12 55 0z m915 5 c0 -3 -4 -8 -10 -11 -5 -3 -10 -1 -10 4 0
6 5 11 10 11 6 0 10 -2 10 -4z m160 -6 c0 -5 -4 -10 -10 -10 -5 0 -10 5 -10
10 0 6 5 10 10 10 6 0 10 -4 10 -10z m323 -41 c-4 -4 -15 -4 -23 1 -13 8 -12
11 5 24 18 13 20 13 23 -1 2 -8 0 -19 -5 -24z m64 -15 c-9 -9 -28 6 -21 18 4
6 10 6 17 -1 6 -6 8 -13 4 -17z m-823 -35 c5 -27 3 -38 -8 -42 -11 -5 -14 3
-11 36 4 64 8 65 19 6z m686 31 c0 -5 -2 -10 -4 -10 -3 0 -8 5 -11 10 -3 6 -1
10 4 10 6 0 11 -4 11 -10z m-224 -45 c-11 -25 -30 -32 -40 -16 -3 5 1 11 9 15
8 3 15 15 15 27 0 17 3 19 14 10 11 -9 11 -17 2 -36z m-1339 13 c-3 -8 -6 -5
-6 6 -1 11 2 17 5 13 3 -3 4 -12 1 -19z m83 -35 c0 -13 -4 -23 -9 -23 -12 0
-23 48 -15 62 9 14 24 -10 24 -39z m146 20 c-10 -10 -19 5 -10 18 6 11 8 11
12 0 2 -7 1 -15 -2 -18z m1334 -9 c0 -8 -5 -12 -10 -9 -6 4 -8 11 -5 16 9 14
15 11 15 -7z m-390 2 c0 -3 -4 -8 -10 -11 -5 -3 -10 -1 -10 4 0 6 5 11 10 11
6 0 10 -2 10 -4z m-1165 -46 c3 -5 -1 -10 -9 -10 -9 0 -16 5 -16 10 0 6 4 10
9 10 6 0 13 -4 16 -10z m920 -10 c-3 -5 -13 -10 -21 -10 -8 0 -12 5 -9 10 3 6
13 10 21 10 8 0 12 -4 9 -10z m45 -46 c0 -14 -3 -14 -15 -4 -8 7 -15 14 -15
16 0 2 7 4 15 4 8 0 15 -7 15 -16z"/>
<path d="M1335 4040 c-7 -11 2 -30 14 -30 5 0 11 9 14 20 5 21 -16 29 -28 10z"/>
<path d="M1260 3972 c0 -13 -6 -22 -16 -22 -21 0 -8 -17 27 -36 l30 -15 -5 32
c-2 18 -12 39 -20 48 -15 14 -16 13 -16 -7z"/>
<path d="M1340 3980 c0 -5 5 -10 11 -10 5 0 7 5 4 10 -3 6 -8 10 -11 10 -2 0
-4 -4 -4 -10z"/>
<path d="M4277 3954 c-4 -4 -7 -15 -7 -24 0 -10 -12 -29 -26 -43 -15 -16 -24
-33 -20 -42 8 -21 34 -19 32 3 0 9 6 17 14 17 25 1 40 15 40 39 0 26 -22 60
-33 50z"/>
<path d="M4327 3883 c-2 -5 -7 -40 -11 -79 -8 -81 -1 -125 19 -118 18 7 31
-36 14 -47 -7 -4 -17 -5 -21 -3 -4 3 -8 -5 -8 -17 0 -17 -4 -20 -21 -16 -32 8
-79 -3 -79 -19 0 -8 5 -14 12 -14 6 0 8 -3 5 -7 -4 -3 4 -12 17 -19 20 -10 32
-10 62 1 38 13 64 11 64 -5 0 -5 3 -15 6 -24 4 -11 1 -16 -10 -16 -9 0 -16 5
-16 11 0 5 -4 7 -10 4 -5 -3 -10 -16 -10 -28 0 -18 -6 -23 -31 -25 -39 -3 -49
-9 -49 -28 0 -23 91 -174 112 -185 14 -8 16 -14 9 -23 -7 -8 -3 -27 14 -64 18
-40 28 -50 41 -45 14 5 15 3 5 -15 -9 -18 -8 -23 9 -32 16 -8 18 -15 11 -29
-14 -26 11 -106 33 -105 9 1 16 -2 16 -7 0 -5 -4 -9 -10 -9 -13 0 -13 -37 0
-45 6 -4 8 -10 5 -14 -2 -5 4 -53 15 -109 11 -55 22 -144 26 -198 7 -121 9
-130 28 -115 11 9 16 9 22 0 4 -7 2 -15 -4 -17 -18 -6 -15 -22 4 -22 9 0 14
-6 11 -12 -2 -7 -14 -13 -26 -12 -24 1 -27 -9 -35 -93 -2 -29 0 -55 5 -58 5
-4 9 3 9 13 0 20 25 36 41 26 15 -9 10 -21 -11 -27 -14 -3 -20 -14 -20 -31 0
-16 -6 -26 -14 -26 -15 0 -20 -17 -31 -103 -5 -39 -3 -53 12 -70 15 -17 16
-19 2 -14 -16 5 -39 -9 -39 -26 0 -4 26 -8 58 -8 31 0 77 0 102 -1 25 0 71 3
103 7 49 7 60 12 68 31 4 13 15 24 23 24 15 0 20 16 35 120 19 127 23 247 12
390 -16 211 -30 300 -51 318 -14 12 -16 20 -8 37 11 24 -10 109 -64 265 -56
159 -174 401 -200 408 -11 2 -18 14 -18 27 0 24 -56 111 -123 193 -23 29 -52
65 -65 82 -23 30 -37 37 -45 23z m60 -129 c-3 -3 -12 -4 -19 -1 -8 3 -5 6 6 6
11 1 17 -2 13 -5z m13 -39 c0 -8 -9 -15 -20 -15 -11 0 -20 5 -20 11 0 6 7 9
15 5 8 -3 15 -1 15 4 0 6 2 10 5 10 3 0 5 -7 5 -15z m30 -45 c0 -5 -7 -10 -15
-10 -8 0 -15 5 -15 10 0 6 7 10 15 10 8 0 15 -4 15 -10z m3 -70 c10 -12 15
-25 12 -30 -9 -15 -25 -12 -25 4 0 8 -7 17 -16 20 -8 3 -12 10 -9 16 9 15 19
12 38 -10z m-43 -165 c0 -16 -27 -32 -37 -21 -7 7 16 36 28 36 5 0 9 -7 9 -15z
m85 6 c3 -5 1 -12 -5 -16 -5 -3 -10 1 -10 9 0 18 6 21 15 7z m-36 -48 c1 -22
-16 -14 -22 9 -8 28 4 47 14 22 4 -10 8 -25 8 -31z m-12 -36 c9 -9 -18 -68
-28 -61 -5 3 -7 10 -4 15 4 5 1 9 -5 9 -6 0 -13 -7 -16 -15 -4 -8 -13 -15 -20
-15 -11 0 -12 4 -4 19 5 11 10 28 10 39 0 16 6 19 30 17 17 -1 33 -5 37 -8z
m140 -9 c-3 -8 -6 -5 -6 6 -1 11 2 17 5 13 3 -3 4 -12 1 -19z m-37 -43 c0 -19
-21 -19 -46 0 -18 14 -17 14 14 15 22 0 32 -5 32 -15z m-14 -55 c8 0 14 7 14
15 0 8 7 15 15 15 8 0 15 -7 15 -15 0 -18 -37 -38 -55 -31 -8 3 -23 -6 -34
-20 -15 -19 -26 -24 -41 -19 -21 7 -27 30 -10 40 6 3 10 -1 10 -10 0 -10 12
-3 33 21 24 29 33 33 35 21 2 -9 10 -17 18 -17z m64 -49 c0 -6 -4 -13 -10 -16
-5 -3 -10 1 -10 9 0 9 5 16 10 16 6 0 10 -4 10 -9z m-40 -113 c18 -20 18 -23
5 -39 -9 -9 -15 -23 -13 -30 2 -9 -5 -13 -21 -11 -14 1 -27 4 -29 7 -9 9 20
34 32 29 8 -3 16 4 19 15 4 19 1 21 -34 21 -40 0 -53 15 -21 23 33 9 41 7 62
-15z m158 -26 c2 -7 -3 -12 -12 -12 -9 0 -16 7 -16 16 0 17 22 14 28 -4z m82
-242 c0 -5 -4 -10 -10 -10 -5 0 -10 5 -10 10 0 6 5 10 10 10 6 0 10 -4 10 -10z
m-68 -334 c19 -14 14 -28 -6 -20 -7 3 -21 -4 -31 -16 -33 -36 -62 -18 -32 21
11 14 32 26 47 28 3 0 13 -6 22 -13z m-67 -225 c3 -5 1 -12 -5 -16 -5 -3 -10
1 -10 9 0 18 6 21 15 7z m193 -113 c-4 -41 -28 -50 -28 -10 0 16 3 32 7 35 15
16 24 5 21 -25z"/>
<path d="M4220 3784 c0 -14 4 -23 10 -19 6 3 10 15 10 26 0 10 -4 19 -10 19
-5 0 -10 -12 -10 -26z"/>
<path d="M1226 3701 c-27 -29 -10 -44 19 -17 14 13 25 26 25 30 0 13 -28 5
-44 -13z"/>
<path d="M4220 3696 c0 -9 5 -16 10 -16 6 0 10 4 10 9 0 6 -4 13 -10 16 -5 3
-10 -1 -10 -9z"/>
<path d="M755 3601 c-6 -11 9 -23 19 -14 9 9 7 23 -3 23 -6 0 -12 -4 -16 -9z"/>
<path d="M710 3534 c0 -8 5 -12 10 -9 6 3 10 10 10 16 0 5 -4 9 -10 9 -5 0
-10 -7 -10 -16z"/>
<path d="M1720 2410 c0 -5 5 -10 10 -10 6 0 10 5 10 10 0 6 -4 10 -10 10 -5 0
-10 -4 -10 -10z"/>
<path d="M1316 975 c4 -8 8 -15 10 -15 2 0 4 7 4 15 0 8 -4 15 -10 15 -5 0 -7
-7 -4 -15z"/>
<path d="M930 965 c0 -8 7 -15 15 -15 8 0 15 7 15 15 0 8 -7 15 -15 15 -8 0
-15 -7 -15 -15z"/>
<path d="M4006 651 c-4 -6 -5 -15 -1 -20 3 -5 1 -12 -5 -16 -6 -3 -13 1 -16 9
-10 26 -37 20 -30 -6 3 -13 6 -26 6 -30 0 -14 19 -8 46 15 21 19 25 27 17 42
-7 12 -13 14 -17 6z"/>
<path d="M3700 451 c-10 -19 -8 -21 17 -21 28 0 61 15 53 24 -3 2 -17 7 -32
11 -21 5 -29 2 -38 -14z"/>
</g>
</svg>
